<?xml version="1.0" encoding="UTF-8"?>
<svg xmlns="http://www.w3.org/2000/svg" width="278" height="113" viewBox="0 0 278 113" fill="none">
  <g clip-path="url(#clip0_1272_3554)">
    <path d="M268.545 112.91H56.675C25.495 112.91 0.224976 87.63 0.224976 56.45C0.224976 25.27 25.495 0 56.675 0H202.565C233.745 0 259.015 25.27 259.015 56.45V78.11C259.045 91.08 272.495 97.77 272.495 97.77C280.905 102.96 279.005 112.72 268.545 112.91Z" fill="#282451"></path>
    <path d="M88.105 78.2402C75.545 78.2402 66.515 70.2302 66.515 57.3302C66.515 44.4302 75.395 36.4202 88.105 36.4202C100.585 36.4202 109.385 44.2902 109.385 56.6702C109.385 57.3402 109.355 58.0402 109.305 58.7402C109.245 59.6202 108.475 60.3102 107.555 60.3102H80.285C79.865 60.3102 79.545 60.6602 79.605 61.0602C80.315 65.8602 83.625 68.1102 87.635 68.1102C90.865 68.1102 92.845 66.7602 94.015 64.9502C94.325 64.4602 94.895 64.1702 95.495 64.1702H105.985C107.235 64.1702 108.075 65.3702 107.615 66.4802C104.785 73.2702 97.685 78.2302 88.105 78.2302V78.2402ZM80.765 53.4002H94.985C95.555 53.4002 95.995 52.9202 95.915 52.3802C95.395 48.5702 91.965 46.4102 87.945 46.4102C84.035 46.4102 80.955 48.4702 79.865 52.2502C79.695 52.8302 80.135 53.4002 80.765 53.4002Z" fill="white"></path>
    <path d="M35.785 25.74H73.885C74.565 25.74 75.115 26.29 75.115 26.97V34.74C75.115 35.42 74.565 35.97 73.885 35.97H62.455C61.775 35.97 61.225 36.52 61.225 37.2V76.94C61.225 77.62 60.675 78.17 59.995 78.17H49.685C49.005 78.17 48.455 77.62 48.455 76.94V37.2C48.455 36.52 47.905 35.97 47.225 35.97H35.795C35.115 35.97 34.565 35.42 34.565 34.74V26.97C34.565 26.29 35.115 25.74 35.795 25.74H35.785Z" fill="white"></path>
    <path d="M138.225 35.9001C148.455 35.9001 156.605 44.1201 156.605 57.2601C156.605 70.4001 148.465 78.7701 138.225 78.7701C133.135 78.7701 129.225 76.7501 126.725 74.0601C126.245 73.5401 125.375 73.8901 125.375 74.5901V96.8101C125.375 97.4901 124.825 98.0401 124.145 98.0401H113.835C113.155 98.0401 112.605 97.4901 112.605 96.8101V37.7201C112.605 37.0401 113.155 36.4901 113.835 36.4901H124.145C124.825 36.4901 125.375 37.0401 125.375 37.7201V40.6301C125.375 41.1701 126.045 41.4101 126.395 41.0001C128.875 38.0401 132.905 35.8901 138.225 35.8901V35.9001ZM134.415 47.0301C129.635 47.0301 125.305 50.6901 125.305 57.3401C125.305 63.9901 129.635 67.6501 134.415 67.6501C139.195 67.6501 143.605 63.9201 143.605 57.2701C143.605 50.6201 139.275 47.0401 134.415 47.0401V47.0301Z" fill="white"></path>
    <path d="M159.135 25.2901C159.135 21.4101 162.195 18.3401 166.755 18.3401C171.315 18.3401 174.295 21.4001 174.295 25.2901C174.295 29.1801 171.235 32.1601 166.755 32.1601C162.275 32.1601 159.135 29.1001 159.135 25.2901ZM161.565 36.4901H171.875C172.555 36.4901 173.105 37.0401 173.105 37.7201V76.9401C173.105 77.6201 172.555 78.1701 171.875 78.1701H161.565C160.885 78.1701 160.335 77.6201 160.335 76.9401V37.7201C160.335 37.0401 160.885 36.4901 161.565 36.4901Z" fill="white"></path>
    <path d="M195.215 35.9001C200.565 35.9001 204.575 38.0101 207.015 40.9401C207.365 41.3701 208.055 41.1301 208.055 40.5701V37.7201C208.055 37.0401 208.605 36.4901 209.285 36.4901H219.595C220.275 36.4901 220.825 37.0401 220.825 37.7201V76.9401C220.825 77.6201 220.275 78.1701 219.595 78.1701H209.285C208.605 78.1701 208.055 77.6201 208.055 76.9401V74.1001C208.055 73.5401 207.355 73.2901 206.995 73.7201C204.505 76.6601 200.485 78.7801 195.135 78.7801C184.975 78.7801 176.835 70.4101 176.835 57.2701C176.835 44.1301 184.975 35.9101 195.215 35.9101V35.9001ZM198.945 47.0301C194.165 47.0301 189.835 50.6201 189.835 57.2601C189.835 63.9001 194.165 67.6401 198.945 67.6401C203.725 67.6401 208.055 63.9801 208.055 57.3301C208.055 50.6801 203.795 47.0201 198.945 47.0201V47.0301Z" fill="white"></path>
  </g>
  <defs>
    <clipPath id="clip0_1272_3554">
      <rect width="277.55" height="112.91" fill="white" transform="translate(0.224976)"></rect>
    </clipPath>
  </defs>
</svg>
